<svg xmlns="http://www.w3.org/2000/svg" viewBox="0 0 800 600" width="800" height="600" role="img" aria-label="MOTEUR BRUSHLESS 12N14P">
  <defs>
    <pattern id="grid" width="40" height="40" patternUnits="userSpaceOnUse">
      <path d="M40 0H0V40" fill="none" stroke="#3b5068" stroke-width="0.5" opacity="0.35"/>
    </pattern>
    <radialGradient id="halo" cx="50%" cy="45%" r="60%">
      <stop offset="0%" stop-color="#22d3ee" stop-opacity="0.16"/>
      <stop offset="100%" stop-color="#22d3ee" stop-opacity="0"/>
    </radialGradient>
  </defs>
  <rect width="800" height="600" fill="#0c1220"/>
  <rect width="800" height="600" fill="url(#grid)"/>
  <rect width="800" height="600" fill="url(#halo)"/>
  <circle cx="400" cy="250" r="180" fill="none" stroke="#22d3ee" stroke-width="2" opacity="0.55"/>
  <circle cx="400" cy="250" r="163" fill="none" stroke="#3b5068" stroke-width="1.5"/>
  <path d="M557.3 220.8A160 160 0 0 1 557.3 279.2L537.7 275.5A140 140 0 0 0 537.7 224.5Z" fill="#f59e0b" opacity="0.42"/>
  <path d="M554.4 292.0A160 160 0 0 1 529.1 344.5L513.0 332.7A140 140 0 0 0 535.1 286.7Z" fill="#22d3ee" opacity="0.42"/>
  <path d="M520.9 354.8A160 160 0 0 1 475.3 391.2L465.9 373.5A140 140 0 0 0 505.8 341.7Z" fill="#f59e0b" opacity="0.42"/>
  <path d="M463.4 396.9A160 160 0 0 1 406.6 409.9L405.8 389.9A140 140 0 0 0 455.5 378.5Z" fill="#22d3ee" opacity="0.42"/>
  <path d="M393.4 409.9A160 160 0 0 1 336.6 396.9L344.5 378.5A140 140 0 0 0 394.2 389.9Z" fill="#f59e0b" opacity="0.42"/>
  <path d="M324.7 391.2A160 160 0 0 1 279.1 354.8L294.2 341.7A140 140 0 0 0 334.1 373.5Z" fill="#22d3ee" opacity="0.42"/>
  <path d="M270.9 344.5A160 160 0 0 1 245.6 292.0L264.9 286.7A140 140 0 0 0 287.0 332.7Z" fill="#f59e0b" opacity="0.42"/>
  <path d="M242.7 279.2A160 160 0 0 1 242.7 220.8L262.3 224.5A140 140 0 0 0 262.3 275.5Z" fill="#22d3ee" opacity="0.42"/>
  <path d="M245.6 208.0A160 160 0 0 1 270.9 155.5L287.0 167.3A140 140 0 0 0 264.9 213.3Z" fill="#f59e0b" opacity="0.42"/>
  <path d="M279.1 145.2A160 160 0 0 1 324.7 108.8L334.1 126.5A140 140 0 0 0 294.2 158.3Z" fill="#22d3ee" opacity="0.42"/>
  <path d="M336.6 103.1A160 160 0 0 1 393.4 90.1L394.2 110.1A140 140 0 0 0 344.5 121.5Z" fill="#f59e0b" opacity="0.42"/>
  <path d="M406.6 90.1A160 160 0 0 1 463.4 103.1L455.5 121.5A140 140 0 0 0 405.8 110.1Z" fill="#22d3ee" opacity="0.42"/>
  <path d="M475.3 108.8A160 160 0 0 1 520.9 145.2L505.8 158.3A140 140 0 0 0 465.9 126.5Z" fill="#f59e0b" opacity="0.42"/>
  <path d="M529.1 155.5A160 160 0 0 1 554.4 208.0L535.1 213.3A140 140 0 0 0 513.0 167.3Z" fill="#22d3ee" opacity="0.42"/>
  <g transform="translate(518.0 250.0) rotate(0)"><rect x="-34" y="-15" width="46" height="30" rx="3" fill="none" stroke="#22d3ee" stroke-width="2"/><rect x="-34" y="-24" width="26" height="48" rx="6" fill="#22d3ee" opacity="0.16"/><rect x="-34" y="-24" width="26" height="48" rx="6" fill="none" stroke="#22d3ee" stroke-width="1.2" opacity="0.7"/></g>
  <g transform="translate(502.2 309.0) rotate(30)"><rect x="-34" y="-15" width="46" height="30" rx="3" fill="none" stroke="#22d3ee" stroke-width="2"/><rect x="-34" y="-24" width="26" height="48" rx="6" fill="#22d3ee" opacity="0.16"/><rect x="-34" y="-24" width="26" height="48" rx="6" fill="none" stroke="#22d3ee" stroke-width="1.2" opacity="0.7"/></g>
  <g transform="translate(459.0 352.2) rotate(60)"><rect x="-34" y="-15" width="46" height="30" rx="3" fill="none" stroke="#22d3ee" stroke-width="2"/><rect x="-34" y="-24" width="26" height="48" rx="6" fill="#22d3ee" opacity="0.16"/><rect x="-34" y="-24" width="26" height="48" rx="6" fill="none" stroke="#22d3ee" stroke-width="1.2" opacity="0.7"/></g>
  <g transform="translate(400.0 368.0) rotate(90)"><rect x="-34" y="-15" width="46" height="30" rx="3" fill="none" stroke="#22d3ee" stroke-width="2"/><rect x="-34" y="-24" width="26" height="48" rx="6" fill="#22d3ee" opacity="0.16"/><rect x="-34" y="-24" width="26" height="48" rx="6" fill="none" stroke="#22d3ee" stroke-width="1.2" opacity="0.7"/></g>
  <g transform="translate(341.0 352.2) rotate(120)"><rect x="-34" y="-15" width="46" height="30" rx="3" fill="none" stroke="#22d3ee" stroke-width="2"/><rect x="-34" y="-24" width="26" height="48" rx="6" fill="#22d3ee" opacity="0.16"/><rect x="-34" y="-24" width="26" height="48" rx="6" fill="none" stroke="#22d3ee" stroke-width="1.2" opacity="0.7"/></g>
  <g transform="translate(297.8 309.0) rotate(150)"><rect x="-34" y="-15" width="46" height="30" rx="3" fill="none" stroke="#22d3ee" stroke-width="2"/><rect x="-34" y="-24" width="26" height="48" rx="6" fill="#22d3ee" opacity="0.16"/><rect x="-34" y="-24" width="26" height="48" rx="6" fill="none" stroke="#22d3ee" stroke-width="1.2" opacity="0.7"/></g>
  <g transform="translate(282.0 250.0) rotate(180)"><rect x="-34" y="-15" width="46" height="30" rx="3" fill="none" stroke="#22d3ee" stroke-width="2"/><rect x="-34" y="-24" width="26" height="48" rx="6" fill="#22d3ee" opacity="0.16"/><rect x="-34" y="-24" width="26" height="48" rx="6" fill="none" stroke="#22d3ee" stroke-width="1.2" opacity="0.7"/></g>
  <g transform="translate(297.8 191.0) rotate(210)"><rect x="-34" y="-15" width="46" height="30" rx="3" fill="none" stroke="#22d3ee" stroke-width="2"/><rect x="-34" y="-24" width="26" height="48" rx="6" fill="#22d3ee" opacity="0.16"/><rect x="-34" y="-24" width="26" height="48" rx="6" fill="none" stroke="#22d3ee" stroke-width="1.2" opacity="0.7"/></g>
  <g transform="translate(341.0 147.8) rotate(240)"><rect x="-34" y="-15" width="46" height="30" rx="3" fill="none" stroke="#22d3ee" stroke-width="2"/><rect x="-34" y="-24" width="26" height="48" rx="6" fill="#22d3ee" opacity="0.16"/><rect x="-34" y="-24" width="26" height="48" rx="6" fill="none" stroke="#22d3ee" stroke-width="1.2" opacity="0.7"/></g>
  <g transform="translate(400.0 132.0) rotate(270)"><rect x="-34" y="-15" width="46" height="30" rx="3" fill="none" stroke="#22d3ee" stroke-width="2"/><rect x="-34" y="-24" width="26" height="48" rx="6" fill="#22d3ee" opacity="0.16"/><rect x="-34" y="-24" width="26" height="48" rx="6" fill="none" stroke="#22d3ee" stroke-width="1.2" opacity="0.7"/></g>
  <g transform="translate(459.0 147.8) rotate(300)"><rect x="-34" y="-15" width="46" height="30" rx="3" fill="none" stroke="#22d3ee" stroke-width="2"/><rect x="-34" y="-24" width="26" height="48" rx="6" fill="#22d3ee" opacity="0.16"/><rect x="-34" y="-24" width="26" height="48" rx="6" fill="none" stroke="#22d3ee" stroke-width="1.2" opacity="0.7"/></g>
  <g transform="translate(502.2 191.0) rotate(330)"><rect x="-34" y="-15" width="46" height="30" rx="3" fill="none" stroke="#22d3ee" stroke-width="2"/><rect x="-34" y="-24" width="26" height="48" rx="6" fill="#22d3ee" opacity="0.16"/><rect x="-34" y="-24" width="26" height="48" rx="6" fill="none" stroke="#22d3ee" stroke-width="1.2" opacity="0.7"/></g>
  <circle cx="400" cy="250" r="76" fill="#0c1220" stroke="#22d3ee" stroke-width="2"/>
  <circle cx="400" cy="250" r="30" fill="none" stroke="#3b5068" stroke-width="2"/>
  <circle cx="400" cy="250" r="12" fill="#22d3ee" opacity="0.8"/>
  <line x1="400" y1="250" x2="528" y2="162" stroke="#f59e0b" stroke-width="3" stroke-linecap="round"/>
  <circle cx="528" cy="162" r="6" fill="#f59e0b"/>
  <g font-family="Inter, Helvetica, Arial, sans-serif">
    <text x="48" y="528" fill="#e2e8f0" font-size="30" font-weight="700" letter-spacing="1.5">MOTEUR BRUSHLESS 12N14P</text>
    <text x="48" y="556" fill="#22d3ee" font-size="15" font-weight="500" letter-spacing="2.4">OUTRUNNER 12 ENCOCHES · 14 PÔLES</text>
    <text x="752" y="556" fill="#3b5068" font-size="12" font-weight="600" letter-spacing="2.6" text-anchor="end">STRATOS ROBOTICS</text>
  </g>
  <rect x="48" y="496" width="64" height="3" fill="#22d3ee"/>
</svg>
