<svg xmlns="http://www.w3.org/2000/svg" viewBox="0 0 800 600" width="800" height="600" role="img" aria-label="OPENESC">
  <defs>
    <pattern id="grid" width="40" height="40" patternUnits="userSpaceOnUse">
      <path d="M40 0H0V40" fill="none" stroke="#3b5068" stroke-width="0.5" opacity="0.35"/>
    </pattern>
    <radialGradient id="halo" cx="50%" cy="45%" r="60%">
      <stop offset="0%" stop-color="#22d3ee" stop-opacity="0.16"/>
      <stop offset="100%" stop-color="#22d3ee" stop-opacity="0"/>
    </radialGradient>
  </defs>
  <rect width="800" height="600" fill="#0c1220"/>
  <rect width="800" height="600" fill="url(#grid)"/>
  <rect width="800" height="600" fill="url(#halo)"/>
  <rect x="190" y="96" width="420" height="300" rx="14" fill="#0f2a1f" stroke="#22d3ee" stroke-width="2"/>
  <circle cx="190" cy="96" r="9" fill="#0c1220" stroke="#22d3ee" stroke-width="2"/>
  <circle cx="610" cy="96" r="9" fill="#0c1220" stroke="#22d3ee" stroke-width="2"/>
  <circle cx="190" cy="396" r="9" fill="#0c1220" stroke="#22d3ee" stroke-width="2"/>
  <circle cx="610" cy="396" r="9" fill="#0c1220" stroke="#22d3ee" stroke-width="2"/>
  <rect x="224" y="140" width="62" height="42" rx="4" fill="#132538" stroke="#22d3ee" stroke-width="1.6"/>
  <rect x="224" y="196" width="62" height="42" rx="4" fill="#132538" stroke="#22d3ee" stroke-width="1.6"/>
  <text x="255" y="166" fill="#22d3ee" font-size="11" font-family="monospace" text-anchor="middle">Q1</text>
  <text x="255" y="222" fill="#22d3ee" font-size="11" font-family="monospace" text-anchor="middle">Q2</text>
  <circle cx="238" cy="362" r="7" fill="#f59e0b" opacity="0.85"/>
  <circle cx="255" cy="362" r="7" fill="#f59e0b" opacity="0.85"/>
  <circle cx="272" cy="362" r="7" fill="#f59e0b" opacity="0.85"/>
  <path d="M255 238V348" stroke="#f59e0b" stroke-width="2" opacity="0.6"/>
  <rect x="320" y="140" width="62" height="42" rx="4" fill="#132538" stroke="#22d3ee" stroke-width="1.6"/>
  <rect x="320" y="196" width="62" height="42" rx="4" fill="#132538" stroke="#22d3ee" stroke-width="1.6"/>
  <text x="351" y="166" fill="#22d3ee" font-size="11" font-family="monospace" text-anchor="middle">Q3</text>
  <text x="351" y="222" fill="#22d3ee" font-size="11" font-family="monospace" text-anchor="middle">Q4</text>
  <circle cx="334" cy="362" r="7" fill="#f59e0b" opacity="0.85"/>
  <circle cx="351" cy="362" r="7" fill="#f59e0b" opacity="0.85"/>
  <circle cx="368" cy="362" r="7" fill="#f59e0b" opacity="0.85"/>
  <path d="M351 238V348" stroke="#f59e0b" stroke-width="2" opacity="0.6"/>
  <rect x="416" y="140" width="62" height="42" rx="4" fill="#132538" stroke="#22d3ee" stroke-width="1.6"/>
  <rect x="416" y="196" width="62" height="42" rx="4" fill="#132538" stroke="#22d3ee" stroke-width="1.6"/>
  <text x="447" y="166" fill="#22d3ee" font-size="11" font-family="monospace" text-anchor="middle">Q5</text>
  <text x="447" y="222" fill="#22d3ee" font-size="11" font-family="monospace" text-anchor="middle">Q6</text>
  <circle cx="430" cy="362" r="7" fill="#f59e0b" opacity="0.85"/>
  <circle cx="447" cy="362" r="7" fill="#f59e0b" opacity="0.85"/>
  <circle cx="464" cy="362" r="7" fill="#f59e0b" opacity="0.85"/>
  <path d="M447 238V348" stroke="#f59e0b" stroke-width="2" opacity="0.6"/>
  <rect x="512" y="140" width="62" height="42" rx="4" fill="#132538" stroke="#22d3ee" stroke-width="1.6"/>
  <rect x="512" y="196" width="62" height="42" rx="4" fill="#132538" stroke="#22d3ee" stroke-width="1.6"/>
  <text x="543" y="166" fill="#22d3ee" font-size="11" font-family="monospace" text-anchor="middle">Q7</text>
  <text x="543" y="222" fill="#22d3ee" font-size="11" font-family="monospace" text-anchor="middle">Q8</text>
  <circle cx="526" cy="362" r="7" fill="#f59e0b" opacity="0.85"/>
  <circle cx="543" cy="362" r="7" fill="#f59e0b" opacity="0.85"/>
  <circle cx="560" cy="362" r="7" fill="#f59e0b" opacity="0.85"/>
  <path d="M543 238V348" stroke="#f59e0b" stroke-width="2" opacity="0.6"/>
  <rect x="224" y="260" width="352" height="46" rx="6" fill="none" stroke="#3b5068" stroke-width="1.4" stroke-dasharray="5 5"/>
  <text x="400" y="288" fill="#3b5068" font-size="13" font-family="monospace" text-anchor="middle">AM32 · 4 CANAUX</text>
  <g font-family="Inter, Helvetica, Arial, sans-serif">
    <text x="48" y="528" fill="#e2e8f0" font-size="30" font-weight="700" letter-spacing="1.5">OPENESC</text>
    <text x="48" y="556" fill="#22d3ee" font-size="15" font-weight="500" letter-spacing="2.4">VARIATEUR BRUSHLESS · MONTAGE 3D</text>
    <text x="752" y="556" fill="#3b5068" font-size="12" font-weight="600" letter-spacing="2.6" text-anchor="end">STRATOS ROBOTICS</text>
  </g>
  <rect x="48" y="496" width="64" height="3" fill="#22d3ee"/>
</svg>
